# File created by Blade
# Date/Time:  Thu Sep 25 19:36:54 2014
# Frame Rate: 120.000 fps
#------------------------------------------------------
:FULLY-SPECIFIED
:DEGREES
1180
root -3.111385 32.933026 1.799456 0.706256 2.517547 0.583324
Spine -7.489825 3.165328 -0.533384
Head -14.711050 -2.521456 16.591559
LeftShoulder -16.165774 14.242857 30.965154
LeftArm 19.484956 -23.921943 -20.199204
LeftForeArm 12.386216 -0.000000 10.228787
LeftHand -24.725301 -0.000000 -16.030426
LeftHandThumb1 -26.253704 0.000000 33.147579
RightShoulder -24.262634 17.401608 -43.477724
RightArm 1.094380 1.315191 22.739244
RightForeArm -34.363266 -0.000000 12.481679
RightHand -11.531729 0.000000 14.687682
RightHandThumb1 -24.326973 -0.000000 -32.862282
LeftUpLeg 3.790482 -2.096453 -0.601078
LeftLeg -0.976487 -0.000000 0.000000
LeftFoot -10.630610 6.645093 -18.541472
LeftToeBase 8.088386 -0.000000 -0.000000
RightUpLeg 3.547128 -3.131439 0.221717
RightLeg 3.227130 -0.000000 -0.000000
RightFoot -11.023451 -9.580132 2.328334
RightToeBase -0.123966 -0.000000 0.000000
1181
root -3.108924 32.931603 1.816113 0.657978 2.577191 0.594141
Spine -7.521627 3.145429 -0.526818
Head -14.622518 -2.521019 16.731410
LeftShoulder -16.137639 14.260392 30.991829
LeftArm 19.476082 -23.921564 -20.218421
LeftForeArm 12.384231 -0.000000 10.238497
LeftHand -24.847908 -0.000000 -15.875130
LeftHandThumb1 -26.253704 0.000000 33.147579
RightShoulder -24.249258 17.395002 -43.459437
RightArm 1.118272 1.279920 22.735004
RightForeArm -34.371819 -0.000000 12.494377
RightHand -11.627846 -0.000000 14.660051
RightHandThumb1 -24.326973 -0.000000 -32.862282
LeftUpLeg 3.859827 -2.111512 -0.614919
LeftLeg -0.970354 -0.000000 0.000000
LeftFoot -10.625043 6.617912 -18.518071
LeftToeBase 8.057908 -0.000000 -0.000000
RightUpLeg 3.630447 -3.141028 0.207995
RightLeg 3.224419 -0.000000 -0.000000
RightFoot -11.035209 -9.617856 2.329244
RightToeBase -0.121756 -0.000000 0.000000
1182
root -3.107349 32.930130 1.830540 0.618963 2.629560 0.598166
Spine -7.554911 3.147174 -0.512477
Head -14.555792 -2.534306 16.867867
LeftShoulder -16.085423 14.201504 31.048068
LeftArm 19.426741 -23.877921 -20.243125
LeftForeArm 12.479876 -0.000000 10.261169
LeftHand -24.952737 0.000000 -15.824607
LeftHandThumb1 -26.253704 0.000000 33.147579
RightShoulder -24.266878 17.344139 -43.466927
RightArm 1.175601 1.290512 22.775913
RightForeArm -34.403415 0.000000 12.486818
RightHand -11.590632 -0.000000 14.662336
RightHandThumb1 -24.326973 -0.000000 -32.862282
LeftUpLeg 3.912160 -2.104441 -0.618841
LeftLeg -0.949921 -0.000000 0.000000
LeftFoot -10.621146 6.527979 -18.470972
LeftToeBase 8.255697 -0.000000 -0.000000
RightUpLeg 3.698787 -3.122462 0.207713
RightLeg 3.228799 -0.000000 -0.000000
RightFoot -11.043656 -9.690472 2.319261
RightToeBase -0.139553 -0.000000 0.000000
1183
root -3.106865 32.928667 1.846512 0.573218 2.667619 0.610720
Spine -7.585341 3.132575 -0.501556
Head -14.471873 -2.527738 16.957450
LeftShoulder -16.082902 14.241082 31.040670
LeftArm 19.446514 -23.908414 -20.244120
LeftForeArm 12.615776 -0.000000 10.255353
LeftHand -24.791419 -0.000000 -15.837477
LeftHandThumb1 -26.253704 0.000000 33.147579
RightShoulder -24.253140 17.328470 -43.471309
RightArm 1.212860 1.360495 22.816198
RightForeArm -34.454692 -0.000000 12.493027
RightHand -11.609506 0.000000 14.633209
RightHandThumb1 -24.326973 -0.000000 -32.862282
LeftUpLeg 3.975994 -2.078673 -0.619021
LeftLeg -0.945623 -0.000000 0.000000
LeftFoot -10.582114 6.435628 -18.412678
LeftToeBase 8.068862 -0.000000 -0.000000
RightUpLeg 3.779182 -3.113707 0.195148
RightLeg 3.223129 -0.000000 -0.000000
RightFoot -11.049187 -9.719676 2.342852
RightToeBase -0.159737 -0.000000 0.000000
1184
root -3.106531 32.927636 1.861179 0.538184 2.725403 0.617929
Spine -7.627115 3.114809 -0.475863
Head -14.384775 -2.557224 16.981613
LeftShoulder -16.070442 14.253414 31.016977
LeftArm 19.448209 -23.905217 -20.212001
LeftForeArm 12.710555 -0.000000 10.301979
LeftHand -24.607165 -0.000000 -16.030275
LeftHandThumb1 -26.253704 0.000000 33.147579
RightShoulder -24.268777 17.277579 -43.509240
RightArm 1.277389 1.341719 22.887337
RightForeArm -34.369628 -0.000000 12.471629
RightHand -11.621095 -0.000000 14.445921
RightHandThumb1 -24.326973 -0.000000 -32.862282
LeftUpLeg 4.025321 -2.082667 -0.629390
LeftLeg -0.922653 -0.000000 0.000000
LeftFoot -10.632853 6.427090 -18.375081
LeftToeBase 8.217422 -0.000000 -0.000000
RightUpLeg 3.839994 -3.140976 0.187597
RightLeg 3.235231 -0.000000 -0.000000
RightFoot -11.072922 -9.731233 2.356330
RightToeBase -0.117574 -0.000000 0.000000
1185
root -3.107002 32.925519 1.876132 0.483735 2.765113 0.632448
Spine -7.634911 3.105775 -0.477156
Head -14.335336 -2.571877 17.051636
LeftShoulder -16.072856 14.256937 31.017055
LeftArm 19.447349 -23.819226 -20.160780
LeftForeArm 12.677408 -0.000000 10.321611
LeftHand -24.873978 -0.000000 -15.868139
LeftHandThumb1 -26.253704 0.000000 33.147579
RightShoulder -24.270281 17.267457 -43.520780
RightArm 1.305533 1.341951 22.915635
RightForeArm -34.580609 0.000000 12.490326
RightHand -11.547732 0.000000 14.549782
RightHandThumb1 -24.326973 -0.000000 -32.862282
LeftUpLeg 4.101443 -2.070081 -0.633292
LeftLeg -0.925390 -0.000000 0.000000
LeftFoot -10.616033 6.336558 -18.352666
LeftToeBase 8.242440 -0.000000 -0.000000
RightUpLeg 3.936287 -3.109264 0.177065
RightLeg 3.213815 -0.000000 -0.000000
RightFoot -11.079205 -9.800920 2.350192
RightToeBase -0.146648 -0.000000 0.000000
1186
root -3.105846 32.924617 1.893256 0.447298 2.812758 0.644049
Spine -7.684451 3.090463 -0.461420
Head -14.254134 -2.627284 17.072490
LeftShoulder -16.074652 14.302752 31.003142
LeftArm 19.486056 -23.773074 -20.150686
LeftForeArm 12.865076 -0.000000 10.327591
LeftHand -24.899718 -0.000000 -15.771413
LeftHandThumb1 -26.253704 0.000000 33.147579
RightShoulder -24.262170 17.258622 -43.534729
RightArm 1.337709 1.288412 22.920389
RightForeArm -34.673976 -0.000000 12.511039
RightHand -11.420598 -0.000000 14.669196
RightHandThumb1 -24.326973 -0.000000 -32.862282
LeftUpLeg 4.165351 -2.064247 -0.641678
LeftLeg -0.925822 -0.000000 0.000000
LeftFoot -10.610475 6.284964 -18.344421
LeftToeBase 8.225685 -0.000000 -0.000000
RightUpLeg 4.001956 -3.146588 0.165782
RightLeg 3.224354 -0.000000 -0.000000
RightFoot -11.105304 -9.829676 2.332731
RightToeBase -0.168060 -0.000000 0.000000
1187
root -3.105111 32.923025 1.908616 0.403228 2.856473 0.656817
Spine -7.716444 3.089473 -0.446167
Head -14.183698 -2.697242 17.061545
LeftShoulder -16.064885 14.345327 30.989750
LeftArm 19.532795 -23.801024 -20.164754
LeftForeArm 12.997686 -0.000000 10.352893
LeftHand -24.727109 0.000000 -15.827037
LeftHandThumb1 -26.253704 0.000000 33.147579
RightShoulder -24.240010 17.304362 -43.579635
RightArm 1.297696 1.138676 22.923109
RightForeArm -34.721493 -0.000000 12.564783
RightHand -11.740067 0.000000 14.527821
RightHandThumb1 -24.326973 -0.000000 -32.862282
LeftUpLeg 4.233952 -2.081519 -0.659913
LeftLeg -0.913654 -0.000000 0.000000
LeftFoot -10.659121 6.277833 -18.429190
LeftToeBase 8.241338 -0.000000 -0.000000
RightUpLeg 4.078816 -3.141899 0.154784
RightLeg 3.228244 -0.000000 -0.000000
RightFoot -11.141701 -9.886270 2.335855
RightToeBase -0.151190 -0.000000 0.000000
1188
root -3.105764 32.921168 1.925902 0.335865 2.894392 0.681525
Spine -7.713674 3.103079 -0.444798
Head -14.144715 -2.783805 17.014850
LeftShoulder -16.032166 14.357709 30.962908
LeftArm 19.505955 -23.856322 -20.136362
LeftForeArm 12.950707 -0.000000 10.424764
LeftHand -24.709771 0.000000 -15.830748
LeftHandThumb1 -26.253704 0.000000 33.147579
RightShoulder -24.246472 17.230383 -43.531094
RightArm 1.397970 1.074097 22.870297
RightForeArm -34.663028 -0.000000 12.553809
RightHand -11.713829 0.000000 14.631356
RightHandThumb1 -24.326973 -0.000000 -32.862282
LeftUpLeg 4.329926 -2.053493 -0.671641
LeftLeg -0.922329 -0.000000 0.000000
LeftFoot -10.594576 6.156565 -18.467410
LeftToeBase 8.128268 -0.000000 -0.000000
RightUpLeg 4.185499 -3.146735 0.130426
RightLeg 3.225149 -0.000000 -0.000000
RightFoot -11.199357 -9.901335 2.388558
RightToeBase -0.053149 -0.000000 0.000000
1189
root -3.106875 32.919448 1.940310 0.298125 2.932999 0.696922
Spine -7.741643 3.113470 -0.434842
Head -14.100689 -2.868906 16.953601
LeftShoulder -16.020190 14.362128 30.935392
LeftArm 19.508762 -23.832718 -20.088964
LeftForeArm 12.948878 -0.000000 10.452979
LeftHand -24.893120 -0.000000 -15.728054
LeftHandThumb1 -26.253704 0.000000 33.147579
RightShoulder -24.245725 17.215739 -43.539121
RightArm 1.439035 0.971242 22.853789
RightForeArm -34.599426 0.000000 12.529412
RightHand -11.543298 -0.000000 14.700522
RightHandThumb1 -24.326973 -0.000000 -32.862282
LeftUpLeg 4.387885 -2.063018 -0.688666
LeftLeg -0.907658 -0.000000 0.000000
LeftFoot -10.635203 6.148853 -18.520691
LeftToeBase 8.159045 -0.000000 -0.000000
RightUpLeg 4.254873 -3.168440 0.118373
RightLeg 3.215489 -0.000000 -0.000000
RightFoot -11.120902 -9.978367 2.260795
RightToeBase -0.403833 -0.000000 0.000000
1190
root -3.107636 32.917499 1.954068 0.259257 2.968193 0.712850
Spine -7.764077 3.100861 -0.423191
Head -14.057806 -2.924863 16.892243
LeftShoulder -16.035385 14.398005 30.899855
LeftArm 19.527489 -23.860854 -20.062568
LeftForeArm 12.993221 -0.000000 10.487628
LeftHand -24.890250 -0.000000 -15.688462
LeftHandThumb1 -26.253704 0.000000 33.147579
RightShoulder -24.254430 17.300746 -43.630178
RightArm 1.421324 0.797679 22.897637
RightForeArm -34.635121 -0.000000 12.547870
RightHand -11.838169 -0.000000 14.562025
RightHandThumb1 -24.326973 -0.000000 -32.862282
LeftUpLeg 4.450008 -2.070448 -0.699954
LeftLeg -0.910057 -0.000000 0.000000
LeftFoot -10.629579 6.120025 -18.556533
LeftToeBase 8.129150 -0.000000 -0.000000
RightUpLeg 4.317081 -3.186788 0.103305
RightLeg 3.236471 -0.000000 -0.000000
RightFoot -11.234346 -9.954520 2.349810
RightToeBase -0.174871 -0.000000 0.000000
1191
root -3.109390 32.916334 1.968017 0.222294 3.010685 0.729226
Spine -7.789762 3.103367 -0.411235
Head -14.018933 -3.003518 16.799331
LeftShoulder -16.027025 14.417251 30.863070
LeftArm 19.546412 -23.836517 -20.021626
LeftForeArm 13.005310 -0.000000 10.517103
LeftHand -24.891112 -0.000000 -15.634887
LeftHandThumb1 -26.253704 0.000000 33.147579
RightShoulder -24.200767 17.164279 -43.578031
RightArm 1.460532 0.880365 22.868453
RightForeArm -34.612296 -0.000000 12.537326
RightHand -11.785519 -0.000000 14.614339
RightHandThumb1 -24.326973 -0.000000 -32.862282
LeftUpLeg 4.503149 -2.063012 -0.710098
LeftLeg -0.897231 -0.000000 0.000000
LeftFoot -10.635778 6.071732 -18.578261
LeftToeBase 8.119051 -0.000000 -0.000000
RightUpLeg 4.371155 -3.237864 0.090838
RightLeg 3.262712 -0.000000 -0.000000
RightFoot -11.274892 -9.959074 2.358452
RightToeBase -0.200702 -0.000000 0.000000
